<?xml version="1.0" ?><svg xmlns="http://www.w3.org/2000/svg" xmlns:xlink="http://www.w3.org/1999/xlink" aria-hidden="true" role="img" class="iconify iconify--logos" preserveAspectRatio="xMidYMid meet" viewBox="0 0 1000 1000"><g><path d="M199.742,703.66h-35.01c-6.875,0-12.5,5.625-12.5,12.5v32.21c0,6.875,5.625,12.5,12.5,12.5h35.01   c6.875,0,12.5-5.625,12.5-12.5v-32.21C212.242,709.285,206.617,703.66,199.742,703.66z" style="fill:white;"/><path d="M835.768,719.765H441.732h-1h-97.266c-6.6,0-12,5.4-12,12v1c0,6.6,5.4,12,12,12h85.266v10.391   c0,6.6,5.4,12,12,12h1c6.6,0,12-5.4,12-12v-10.391h382.037c6.6,0,12-5.4,12-12v-1C847.768,725.165,842.368,719.765,835.768,719.765   z" style="fill:white;"/><path d="M835.768,801.975h-46.037h-1H343.466c-6.6,0-12,5.4-12,12v1c0,6.6,5.4,12,12,12h433.266v10.391   c0,6.6,5.4,12,12,12h1c6.6,0,12-5.4,12-12v-10.391h34.037c6.6,0,12-5.4,12-12v-1C847.768,807.375,842.368,801.975,835.768,801.975z   " style="fill:white;"/><path d="M285.975,703.66h-35.01c-6.875,0-12.5,5.625-12.5,12.5v32.21c0,6.875,5.625,12.5,12.5,12.5h35.01   c6.875,0,12.5-5.625,12.5-12.5v-32.21C298.475,709.285,292.85,703.66,285.975,703.66z" style="fill:white;"/><path d="M199.742,785.87h-35.01c-6.875,0-12.5,5.625-12.5,12.5v32.21c0,6.875,5.625,12.5,12.5,12.5h35.01   c6.875,0,12.5-5.625,12.5-12.5v-32.21C212.242,791.495,206.617,785.87,199.742,785.87z" style="fill:white;"/><path d="M285.975,785.87h-35.01c-6.875,0-12.5,5.625-12.5,12.5v32.21c0,6.875,5.625,12.5,12.5,12.5h35.01   c6.875,0,12.5-5.625,12.5-12.5v-32.21C298.475,791.495,292.85,785.87,285.975,785.87z" style="fill:white;"/><path d="M487.357,214.909v-64.275c-38.677,1.815-75.16,12.005-107.68,28.802l32.176,55.73   C434.851,223.708,460.379,216.599,487.357,214.909z" style="fill:white;"/><path d="M322.427,324.599c0.001-0.002,0.003-0.005,0.004-0.008l-55.733-32.177   c-16.797,32.521-26.987,69.004-28.802,107.681h64.281C303.867,373.127,310.977,347.598,322.427,324.599z" style="fill:white;"/><path d="M385.677,282.639l46.13,45.41c8.2-6.62,17.38-12.07,27.28-16.09l-17.26-62.43   C420.987,256.969,401.977,268.299,385.677,282.639z" style="fill:white;"/><path d="M322.435,500.596c-11.459-22.999-18.568-48.528-20.258-75.497c0-0.001,0-0.003,0-0.004h-64.281   c1.815,38.677,12.005,75.16,28.802,107.68L322.435,500.596z" style="fill:white;"/><path d="M335.896,357.139l62.7,16.27c3.87-9.98,9.17-19.24,15.66-27.54l-46.13-45.41   C354.047,316.969,343.016,336.159,335.896,357.139z" style="fill:white;"/><path d="M460.687,513.869c-9.97-3.87-19.24-9.17-27.54-15.66l-45.41,46.13   c16.52,14.08,35.7,25.11,56.68,32.22L460.687,513.869z" style="fill:white;"/><path d="M487.357,674.556v-64.277c-26.98-1.69-52.5-8.8-75.5-20.26c-0.001,0-0.001-0.001-0.001-0.001   l-32.179,55.736C412.197,662.551,448.68,672.741,487.357,674.556z" style="fill:white;"/><path d="M415.336,480.669c-6.63-8.2-12.08-17.37-16.1-27.28l-62.44,17.25   c7.44,20.85,18.78,39.86,33.13,56.16L415.336,480.669z" style="fill:white;"/><path d="M677.287,324.599c11.449,22.999,18.559,48.528,20.25,75.496h64.281   c-1.815-38.677-12.005-75.16-28.802-107.681l-55.733,32.177C677.284,324.594,677.285,324.597,677.287,324.599z" style="fill:white;"/><path d="M326.787,412.599c0,11.62,1.15,22.98,3.34,33.96l62.43-17.26c-0.84-5.45-1.28-11.02-1.28-16.7   c0-5.09,0.35-10.09,1.04-14.99l-62.7-16.28C327.757,391.469,326.787,401.929,326.787,412.599z" style="fill:white;"/><path d="M533.826,582.319l-17.26-62.42c-5.45,0.84-11.03,1.28-16.71,1.28c-5.08,0-10.08-0.35-14.98-1.03   l-16.27,62.69c10.14,1.86,20.58,2.83,31.25,2.83C511.477,585.669,522.836,584.519,533.826,582.319z" style="fill:white;"/><path d="M483.177,305.289c5.44-0.84,11.01-1.28,16.68-1.28c5.1,0,10.11,0.35,15.02,1.04l16.27-62.69   c-10.15-1.87-20.61-2.84-31.29-2.84c-11.61,0-22.96,1.15-33.93,3.34L483.177,305.289z" style="fill:white;"/><path d="M508.547,329.459c-2.86-0.3-5.76-0.45-8.69-0.45c-3.37,0-6.69,0.2-9.96,0.59   c-8.48,1.01-16.58,3.3-24.09,6.66c-5.71,2.56-11.09,5.74-16.04,9.47c-6.7,5.03-12.62,11.04-17.54,17.82   c-3.65,5.01-6.75,10.43-9.22,16.19c-3.24,7.56-5.4,15.69-6.29,24.2c-0.29,2.85-0.44,5.74-0.44,8.66c0,3.38,0.2,6.71,0.6,9.98   c1.01,8.48,3.3,16.58,6.66,24.09c2.56,5.72,5.75,11.09,9.47,16.04c5.03,6.7,11.05,12.62,17.83,17.54   c5.01,3.64,10.43,6.74,16.19,9.2c7.56,3.25,15.68,5.41,24.19,6.29c2.84,0.29,5.72,0.44,8.64,0.44c3.38,0,6.72-0.2,9.99-0.6   c8.48-1.01,16.58-3.3,24.09-6.68c5.71-2.55,11.08-5.73,16.03-9.45c6.7-5.03,12.62-11.05,17.53-17.83c3.65-5,6.74-10.41,9.2-16.16   c3.25-7.56,5.41-15.69,6.3-24.2c0.29-2.85,0.44-5.74,0.44-8.66c0-3.37-0.2-6.69-0.59-9.96c-1.01-8.49-3.3-16.58-6.66-24.1   c-2.56-5.71-5.74-11.08-9.46-16.03c-5.03-6.7-11.04-12.62-17.82-17.54c-5-3.66-10.42-6.75-16.18-9.22   C525.177,332.499,517.047,330.339,508.547,329.459z" style="fill:red;"/><path d="M620.037,179.436c-32.521-16.797-69.004-26.987-107.68-28.802v64.275   c26.978,1.69,52.506,8.799,75.505,20.257L620.037,179.436z" style="fill:white;"/><path d="M672.927,412.599c0-11.61-1.15-22.96-3.34-33.94l-62.43,17.26c0.84,5.44,1.28,11.01,1.28,16.68   c0,5.09-0.35,10.09-1.04,14.99l62.7,16.27C671.956,433.719,672.927,423.269,672.927,412.599z" style="fill:white;"/><path d="M539.067,311.329c9.97,3.88,19.22,9.18,27.52,15.67l45.41-46.13   c-16.51-14.08-35.69-25.12-56.66-32.23L539.067,311.329z" style="fill:white;"/><path d="M584.407,344.549c6.61,8.19,12.06,17.37,16.08,27.27l62.43-17.25   c-7.43-20.84-18.76-39.85-33.1-56.15L584.407,344.549z" style="fill:white;"/><path d="M663.817,468.059l-62.7-16.27c-3.87,9.97-9.17,19.22-15.65,27.52l46.13,45.41   C645.667,508.209,656.697,489.029,663.817,468.059z" style="fill:white;"/><path d="M390.223,577.487c-21.858-14.58-40.677-33.399-55.256-55.258c0,0,0-0.001-0.001-0.001   l-55.751,32.188c20.333,31.567,47.253,58.488,78.82,78.82L390.223,577.487z" style="fill:white;"/><polygon points="237.592,412.6 237.592,412.59 237.592,412.595  " style="fill:white;"/><path d="M720.498,554.416l-55.751-32.188c0,0,0,0,0,0c-14.579,21.859-33.398,40.678-55.256,55.258   l32.188,55.75C673.245,612.904,700.166,585.984,720.498,554.416z" style="fill:white;"/><path d="M664.747,302.959c0,0.001,0.001,0.001,0.001,0.002l55.75-32.188   c-20.333-31.567-47.253-58.488-78.82-78.82l-32.191,55.756C631.347,262.28,650.167,281.099,664.747,302.959z" style="fill:white;"/><polygon points="762.121,412.59 762.121,412.6 762.121,412.595  " style="fill:white;"/><path d="M761.817,425.095h-64.281c0,0.001,0,0.003,0,0.004c-1.69,26.969-8.799,52.497-20.258,75.497   l55.737,32.18C749.812,500.255,760.002,463.772,761.817,425.095z" style="fill:white;"/><path d="M540.657,513.219l17.26,62.43c20.84-7.44,39.84-18.77,56.14-33.12l-46.13-45.41   C559.737,503.739,550.557,509.189,540.657,513.219z" style="fill:white;"/><path d="M334.967,302.959c14.58-21.86,33.4-40.68,55.259-55.25l-32.191-55.756   c-31.567,20.333-58.488,47.253-78.82,78.82l55.75,32.188C334.966,302.961,334.966,302.96,334.967,302.959z" style="fill:white;"/><path d="M587.858,590.018C587.857,590.019,587.857,590.019,587.858,590.018   c-23.001,11.461-48.521,18.571-75.501,20.261v64.277c38.676-1.815,75.16-12.005,107.68-28.802L587.858,590.018z" style="fill:white;"/></g></svg>